<mxfile host="Electron" agent="Mozilla/5.0 (Windows NT 10.0; Win64; x64) AppleWebKit/537.36 (KHTML, like Gecko) draw.io/24.7.8 Chrome/128.0.6613.36 Electron/32.0.1 Safari/537.36" version="24.7.8">
  <diagram name="Página-1" id="kJwIRiJnS9hOntdulZz-">
    <mxGraphModel dx="2261" dy="836" grid="1" gridSize="10" guides="1" tooltips="1" connect="1" arrows="1" fold="1" page="1" pageScale="1" pageWidth="827" pageHeight="1169" math="0" shadow="0">
      <root>
        <mxCell id="0" />
        <mxCell id="1" parent="0" />
        <mxCell id="LLytZ81pDuAPuorUE8C5-5" value="INSCRIPCION" style="swimlane;childLayout=stackLayout;horizontal=1;startSize=50;horizontalStack=0;rounded=1;fontSize=14;fontStyle=0;strokeWidth=2;resizeParent=0;resizeLast=1;shadow=0;dashed=0;align=center;arcSize=4;whiteSpace=wrap;html=1;" vertex="1" parent="1">
          <mxGeometry x="20" y="490" width="160" height="120" as="geometry" />
        </mxCell>
        <mxCell id="LLytZ81pDuAPuorUE8C5-6" value="&lt;div&gt;&lt;u&gt;inscripcion_id&lt;/u&gt;&lt;/div&gt;&lt;div&gt;Curso_ID&amp;nbsp;&lt;/div&gt;&lt;div&gt;Estudiante_ID&lt;/div&gt;&lt;div&gt;Profesor_ID&lt;/div&gt;" style="align=left;strokeColor=none;fillColor=none;spacingLeft=4;fontSize=12;verticalAlign=top;resizable=0;rotatable=0;part=1;html=1;" vertex="1" parent="LLytZ81pDuAPuorUE8C5-5">
          <mxGeometry y="50" width="160" height="70" as="geometry" />
        </mxCell>
        <mxCell id="LLytZ81pDuAPuorUE8C5-7" value="ESTUDIANTE" style="swimlane;childLayout=stackLayout;horizontal=1;startSize=50;horizontalStack=0;rounded=1;fontSize=14;fontStyle=0;strokeWidth=2;resizeParent=0;resizeLast=1;shadow=0;dashed=0;align=center;arcSize=4;whiteSpace=wrap;html=1;" vertex="1" parent="1">
          <mxGeometry x="-230" y="490" width="160" height="120" as="geometry" />
        </mxCell>
        <mxCell id="LLytZ81pDuAPuorUE8C5-8" value="Estudiante_ID&lt;div&gt;NombreEstudiante&lt;/div&gt;" style="align=left;strokeColor=none;fillColor=none;spacingLeft=4;fontSize=12;verticalAlign=top;resizable=0;rotatable=0;part=1;html=1;" vertex="1" parent="LLytZ81pDuAPuorUE8C5-7">
          <mxGeometry y="50" width="160" height="70" as="geometry" />
        </mxCell>
        <mxCell id="LLytZ81pDuAPuorUE8C5-9" value="CURSO" style="swimlane;childLayout=stackLayout;horizontal=1;startSize=50;horizontalStack=0;rounded=1;fontSize=14;fontStyle=0;strokeWidth=2;resizeParent=0;resizeLast=1;shadow=0;dashed=0;align=center;arcSize=4;whiteSpace=wrap;html=1;" vertex="1" parent="1">
          <mxGeometry x="320" y="430" width="160" height="120" as="geometry" />
        </mxCell>
        <mxCell id="LLytZ81pDuAPuorUE8C5-10" value="&lt;div&gt;Curso_ID&lt;/div&gt;&lt;div&gt;NombreCurso&lt;/div&gt;" style="align=left;strokeColor=none;fillColor=none;spacingLeft=4;fontSize=12;verticalAlign=top;resizable=0;rotatable=0;part=1;html=1;" vertex="1" parent="LLytZ81pDuAPuorUE8C5-9">
          <mxGeometry y="50" width="160" height="70" as="geometry" />
        </mxCell>
        <mxCell id="LLytZ81pDuAPuorUE8C5-13" value="" style="endArrow=none;html=1;rounded=0;exitX=1.013;exitY=0.157;exitDx=0;exitDy=0;exitPerimeter=0;entryX=0;entryY=0.5;entryDx=0;entryDy=0;" edge="1" parent="1" source="LLytZ81pDuAPuorUE8C5-6" target="LLytZ81pDuAPuorUE8C5-9">
          <mxGeometry relative="1" as="geometry">
            <mxPoint x="270" y="540" as="sourcePoint" />
            <mxPoint x="250" y="550" as="targetPoint" />
          </mxGeometry>
        </mxCell>
        <mxCell id="LLytZ81pDuAPuorUE8C5-14" value="1:N" style="text;html=1;align=center;verticalAlign=middle;resizable=0;points=[];autosize=1;strokeColor=none;fillColor=none;" vertex="1" parent="1">
          <mxGeometry x="220" y="490" width="40" height="30" as="geometry" />
        </mxCell>
        <mxCell id="LLytZ81pDuAPuorUE8C5-20" value="" style="shape=table;startSize=0;container=1;collapsible=0;childLayout=tableLayout;" vertex="1" parent="1">
          <mxGeometry x="-290" y="767.5" width="240" height="195" as="geometry" />
        </mxCell>
        <mxCell id="LLytZ81pDuAPuorUE8C5-21" value="" style="shape=tableRow;horizontal=0;startSize=0;swimlaneHead=0;swimlaneBody=0;strokeColor=inherit;top=0;left=0;bottom=0;right=0;collapsible=0;dropTarget=0;fillColor=none;points=[[0,0.5],[1,0.5]];portConstraint=eastwest;" vertex="1" parent="LLytZ81pDuAPuorUE8C5-20">
          <mxGeometry width="240" height="49" as="geometry" />
        </mxCell>
        <mxCell id="LLytZ81pDuAPuorUE8C5-22" value="EstudianteID" style="shape=partialRectangle;html=1;whiteSpace=wrap;connectable=0;strokeColor=inherit;overflow=hidden;fillColor=none;top=0;left=0;bottom=0;right=0;pointerEvents=1;" vertex="1" parent="LLytZ81pDuAPuorUE8C5-21">
          <mxGeometry width="121" height="49" as="geometry">
            <mxRectangle width="121" height="49" as="alternateBounds" />
          </mxGeometry>
        </mxCell>
        <mxCell id="LLytZ81pDuAPuorUE8C5-23" value="Nombreestudiante" style="shape=partialRectangle;html=1;whiteSpace=wrap;connectable=0;strokeColor=inherit;overflow=hidden;fillColor=none;top=0;left=0;bottom=0;right=0;pointerEvents=1;" vertex="1" parent="LLytZ81pDuAPuorUE8C5-21">
          <mxGeometry x="121" width="119" height="49" as="geometry">
            <mxRectangle width="119" height="49" as="alternateBounds" />
          </mxGeometry>
        </mxCell>
        <mxCell id="LLytZ81pDuAPuorUE8C5-25" value="" style="shape=tableRow;horizontal=0;startSize=0;swimlaneHead=0;swimlaneBody=0;strokeColor=inherit;top=0;left=0;bottom=0;right=0;collapsible=0;dropTarget=0;fillColor=none;points=[[0,0.5],[1,0.5]];portConstraint=eastwest;" vertex="1" parent="LLytZ81pDuAPuorUE8C5-20">
          <mxGeometry y="49" width="240" height="49" as="geometry" />
        </mxCell>
        <mxCell id="LLytZ81pDuAPuorUE8C5-26" value="101" style="shape=partialRectangle;html=1;whiteSpace=wrap;connectable=0;strokeColor=inherit;overflow=hidden;fillColor=none;top=0;left=0;bottom=0;right=0;pointerEvents=1;" vertex="1" parent="LLytZ81pDuAPuorUE8C5-25">
          <mxGeometry width="121" height="49" as="geometry">
            <mxRectangle width="121" height="49" as="alternateBounds" />
          </mxGeometry>
        </mxCell>
        <mxCell id="LLytZ81pDuAPuorUE8C5-27" value="Juan Pérez" style="shape=partialRectangle;html=1;whiteSpace=wrap;connectable=0;strokeColor=inherit;overflow=hidden;fillColor=none;top=0;left=0;bottom=0;right=0;pointerEvents=1;" vertex="1" parent="LLytZ81pDuAPuorUE8C5-25">
          <mxGeometry x="121" width="119" height="49" as="geometry">
            <mxRectangle width="119" height="49" as="alternateBounds" />
          </mxGeometry>
        </mxCell>
        <mxCell id="LLytZ81pDuAPuorUE8C5-29" value="" style="shape=tableRow;horizontal=0;startSize=0;swimlaneHead=0;swimlaneBody=0;strokeColor=inherit;top=0;left=0;bottom=0;right=0;collapsible=0;dropTarget=0;fillColor=none;points=[[0,0.5],[1,0.5]];portConstraint=eastwest;" vertex="1" parent="LLytZ81pDuAPuorUE8C5-20">
          <mxGeometry y="98" width="240" height="48" as="geometry" />
        </mxCell>
        <mxCell id="LLytZ81pDuAPuorUE8C5-30" value="102" style="shape=partialRectangle;html=1;whiteSpace=wrap;connectable=0;strokeColor=inherit;overflow=hidden;fillColor=none;top=0;left=0;bottom=0;right=0;pointerEvents=1;" vertex="1" parent="LLytZ81pDuAPuorUE8C5-29">
          <mxGeometry width="121" height="48" as="geometry">
            <mxRectangle width="121" height="48" as="alternateBounds" />
          </mxGeometry>
        </mxCell>
        <mxCell id="LLytZ81pDuAPuorUE8C5-31" value="Ana García" style="shape=partialRectangle;html=1;whiteSpace=wrap;connectable=0;strokeColor=inherit;overflow=hidden;fillColor=none;top=0;left=0;bottom=0;right=0;pointerEvents=1;" vertex="1" parent="LLytZ81pDuAPuorUE8C5-29">
          <mxGeometry x="121" width="119" height="48" as="geometry">
            <mxRectangle width="119" height="48" as="alternateBounds" />
          </mxGeometry>
        </mxCell>
        <mxCell id="LLytZ81pDuAPuorUE8C5-100" style="shape=tableRow;horizontal=0;startSize=0;swimlaneHead=0;swimlaneBody=0;strokeColor=inherit;top=0;left=0;bottom=0;right=0;collapsible=0;dropTarget=0;fillColor=none;points=[[0,0.5],[1,0.5]];portConstraint=eastwest;" vertex="1" parent="LLytZ81pDuAPuorUE8C5-20">
          <mxGeometry y="146" width="240" height="49" as="geometry" />
        </mxCell>
        <mxCell id="LLytZ81pDuAPuorUE8C5-101" value="103" style="shape=partialRectangle;html=1;whiteSpace=wrap;connectable=0;strokeColor=inherit;overflow=hidden;fillColor=none;top=0;left=0;bottom=0;right=0;pointerEvents=1;" vertex="1" parent="LLytZ81pDuAPuorUE8C5-100">
          <mxGeometry width="121" height="49" as="geometry">
            <mxRectangle width="121" height="49" as="alternateBounds" />
          </mxGeometry>
        </mxCell>
        <mxCell id="LLytZ81pDuAPuorUE8C5-102" value="María Fernández" style="shape=partialRectangle;html=1;whiteSpace=wrap;connectable=0;strokeColor=inherit;overflow=hidden;fillColor=none;top=0;left=0;bottom=0;right=0;pointerEvents=1;" vertex="1" parent="LLytZ81pDuAPuorUE8C5-100">
          <mxGeometry x="121" width="119" height="49" as="geometry">
            <mxRectangle width="119" height="49" as="alternateBounds" />
          </mxGeometry>
        </mxCell>
        <mxCell id="LLytZ81pDuAPuorUE8C5-33" value="" style="shape=table;startSize=0;container=1;collapsible=0;childLayout=tableLayout;" vertex="1" parent="1">
          <mxGeometry x="510" y="890" width="310" height="160" as="geometry" />
        </mxCell>
        <mxCell id="LLytZ81pDuAPuorUE8C5-34" value="" style="shape=tableRow;horizontal=0;startSize=0;swimlaneHead=0;swimlaneBody=0;strokeColor=inherit;top=0;left=0;bottom=0;right=0;collapsible=0;dropTarget=0;fillColor=none;points=[[0,0.5],[1,0.5]];portConstraint=eastwest;" vertex="1" parent="LLytZ81pDuAPuorUE8C5-33">
          <mxGeometry width="310" height="53" as="geometry" />
        </mxCell>
        <mxCell id="LLytZ81pDuAPuorUE8C5-35" value="ProfesorID" style="shape=partialRectangle;html=1;whiteSpace=wrap;connectable=0;strokeColor=inherit;overflow=hidden;fillColor=none;top=0;left=0;bottom=0;right=0;pointerEvents=1;" vertex="1" parent="LLytZ81pDuAPuorUE8C5-34">
          <mxGeometry width="104" height="53" as="geometry">
            <mxRectangle width="104" height="53" as="alternateBounds" />
          </mxGeometry>
        </mxCell>
        <mxCell id="LLytZ81pDuAPuorUE8C5-36" value="NombreProfesor" style="shape=partialRectangle;html=1;whiteSpace=wrap;connectable=0;strokeColor=inherit;overflow=hidden;fillColor=none;top=0;left=0;bottom=0;right=0;pointerEvents=1;" vertex="1" parent="LLytZ81pDuAPuorUE8C5-34">
          <mxGeometry x="104" width="102" height="53" as="geometry">
            <mxRectangle width="102" height="53" as="alternateBounds" />
          </mxGeometry>
        </mxCell>
        <mxCell id="LLytZ81pDuAPuorUE8C5-37" value="EmailProfesor" style="shape=partialRectangle;html=1;whiteSpace=wrap;connectable=0;strokeColor=inherit;overflow=hidden;fillColor=none;top=0;left=0;bottom=0;right=0;pointerEvents=1;" vertex="1" parent="LLytZ81pDuAPuorUE8C5-34">
          <mxGeometry x="206" width="104" height="53" as="geometry">
            <mxRectangle width="104" height="53" as="alternateBounds" />
          </mxGeometry>
        </mxCell>
        <mxCell id="LLytZ81pDuAPuorUE8C5-38" value="" style="shape=tableRow;horizontal=0;startSize=0;swimlaneHead=0;swimlaneBody=0;strokeColor=inherit;top=0;left=0;bottom=0;right=0;collapsible=0;dropTarget=0;fillColor=none;points=[[0,0.5],[1,0.5]];portConstraint=eastwest;" vertex="1" parent="LLytZ81pDuAPuorUE8C5-33">
          <mxGeometry y="53" width="310" height="54" as="geometry" />
        </mxCell>
        <mxCell id="LLytZ81pDuAPuorUE8C5-39" value="201" style="shape=partialRectangle;html=1;whiteSpace=wrap;connectable=0;strokeColor=inherit;overflow=hidden;fillColor=none;top=0;left=0;bottom=0;right=0;pointerEvents=1;" vertex="1" parent="LLytZ81pDuAPuorUE8C5-38">
          <mxGeometry width="104" height="54" as="geometry">
            <mxRectangle width="104" height="54" as="alternateBounds" />
          </mxGeometry>
        </mxCell>
        <mxCell id="LLytZ81pDuAPuorUE8C5-40" value="Ana López" style="shape=partialRectangle;html=1;whiteSpace=wrap;connectable=0;strokeColor=inherit;overflow=hidden;fillColor=none;top=0;left=0;bottom=0;right=0;pointerEvents=1;" vertex="1" parent="LLytZ81pDuAPuorUE8C5-38">
          <mxGeometry x="104" width="102" height="54" as="geometry">
            <mxRectangle width="102" height="54" as="alternateBounds" />
          </mxGeometry>
        </mxCell>
        <mxCell id="LLytZ81pDuAPuorUE8C5-41" value="&lt;div style=&quot;text-align: start;&quot;&gt;&lt;span style=&quot;background-color: initial;&quot;&gt;ana.lop@uni.edu&lt;/span&gt;&lt;/div&gt;" style="shape=partialRectangle;html=1;whiteSpace=wrap;connectable=0;strokeColor=inherit;overflow=hidden;fillColor=none;top=0;left=0;bottom=0;right=0;pointerEvents=1;" vertex="1" parent="LLytZ81pDuAPuorUE8C5-38">
          <mxGeometry x="206" width="104" height="54" as="geometry">
            <mxRectangle width="104" height="54" as="alternateBounds" />
          </mxGeometry>
        </mxCell>
        <mxCell id="LLytZ81pDuAPuorUE8C5-42" value="" style="shape=tableRow;horizontal=0;startSize=0;swimlaneHead=0;swimlaneBody=0;strokeColor=inherit;top=0;left=0;bottom=0;right=0;collapsible=0;dropTarget=0;fillColor=none;points=[[0,0.5],[1,0.5]];portConstraint=eastwest;" vertex="1" parent="LLytZ81pDuAPuorUE8C5-33">
          <mxGeometry y="107" width="310" height="53" as="geometry" />
        </mxCell>
        <mxCell id="LLytZ81pDuAPuorUE8C5-43" value="202" style="shape=partialRectangle;html=1;whiteSpace=wrap;connectable=0;strokeColor=inherit;overflow=hidden;fillColor=none;top=0;left=0;bottom=0;right=0;pointerEvents=1;" vertex="1" parent="LLytZ81pDuAPuorUE8C5-42">
          <mxGeometry width="104" height="53" as="geometry">
            <mxRectangle width="104" height="53" as="alternateBounds" />
          </mxGeometry>
        </mxCell>
        <mxCell id="LLytZ81pDuAPuorUE8C5-44" value="Carlos Martinez" style="shape=partialRectangle;html=1;whiteSpace=wrap;connectable=0;strokeColor=inherit;overflow=hidden;fillColor=none;top=0;left=0;bottom=0;right=0;pointerEvents=1;" vertex="1" parent="LLytZ81pDuAPuorUE8C5-42">
          <mxGeometry x="104" width="102" height="53" as="geometry">
            <mxRectangle width="102" height="53" as="alternateBounds" />
          </mxGeometry>
        </mxCell>
        <mxCell id="LLytZ81pDuAPuorUE8C5-45" value="carlos.m@uni.edu" style="shape=partialRectangle;html=1;whiteSpace=wrap;connectable=0;strokeColor=inherit;overflow=hidden;fillColor=none;top=0;left=0;bottom=0;right=0;pointerEvents=1;" vertex="1" parent="LLytZ81pDuAPuorUE8C5-42">
          <mxGeometry x="206" width="104" height="53" as="geometry">
            <mxRectangle width="104" height="53" as="alternateBounds" />
          </mxGeometry>
        </mxCell>
        <mxCell id="LLytZ81pDuAPuorUE8C5-76" value="" style="shape=table;startSize=0;container=1;collapsible=0;childLayout=tableLayout;" vertex="1" parent="1">
          <mxGeometry x="50" y="777.5" width="310" height="206" as="geometry" />
        </mxCell>
        <mxCell id="LLytZ81pDuAPuorUE8C5-77" value="" style="shape=tableRow;horizontal=0;startSize=0;swimlaneHead=0;swimlaneBody=0;strokeColor=inherit;top=0;left=0;bottom=0;right=0;collapsible=0;dropTarget=0;fillColor=none;points=[[0,0.5],[1,0.5]];portConstraint=eastwest;" vertex="1" parent="LLytZ81pDuAPuorUE8C5-76">
          <mxGeometry width="310" height="41" as="geometry" />
        </mxCell>
        <mxCell id="LLytZ81pDuAPuorUE8C5-78" value="inscripcionID" style="shape=partialRectangle;html=1;whiteSpace=wrap;connectable=0;strokeColor=inherit;overflow=hidden;fillColor=none;top=0;left=0;bottom=0;right=0;pointerEvents=1;" vertex="1" parent="LLytZ81pDuAPuorUE8C5-77">
          <mxGeometry width="78" height="41" as="geometry">
            <mxRectangle width="78" height="41" as="alternateBounds" />
          </mxGeometry>
        </mxCell>
        <mxCell id="LLytZ81pDuAPuorUE8C5-79" value="CursoID" style="shape=partialRectangle;html=1;whiteSpace=wrap;connectable=0;strokeColor=inherit;overflow=hidden;fillColor=none;top=0;left=0;bottom=0;right=0;pointerEvents=1;" vertex="1" parent="LLytZ81pDuAPuorUE8C5-77">
          <mxGeometry x="78" width="77" height="41" as="geometry">
            <mxRectangle width="77" height="41" as="alternateBounds" />
          </mxGeometry>
        </mxCell>
        <mxCell id="LLytZ81pDuAPuorUE8C5-80" value="EstudianteID" style="shape=partialRectangle;html=1;whiteSpace=wrap;connectable=0;strokeColor=inherit;overflow=hidden;fillColor=none;top=0;left=0;bottom=0;right=0;pointerEvents=1;" vertex="1" parent="LLytZ81pDuAPuorUE8C5-77">
          <mxGeometry x="155" width="78" height="41" as="geometry">
            <mxRectangle width="78" height="41" as="alternateBounds" />
          </mxGeometry>
        </mxCell>
        <mxCell id="LLytZ81pDuAPuorUE8C5-81" value="ProfesorID" style="shape=partialRectangle;html=1;whiteSpace=wrap;connectable=0;strokeColor=inherit;overflow=hidden;fillColor=none;top=0;left=0;bottom=0;right=0;pointerEvents=1;" vertex="1" parent="LLytZ81pDuAPuorUE8C5-77">
          <mxGeometry x="233" width="77" height="41" as="geometry">
            <mxRectangle width="77" height="41" as="alternateBounds" />
          </mxGeometry>
        </mxCell>
        <mxCell id="LLytZ81pDuAPuorUE8C5-82" value="" style="shape=tableRow;horizontal=0;startSize=0;swimlaneHead=0;swimlaneBody=0;strokeColor=inherit;top=0;left=0;bottom=0;right=0;collapsible=0;dropTarget=0;fillColor=none;points=[[0,0.5],[1,0.5]];portConstraint=eastwest;" vertex="1" parent="LLytZ81pDuAPuorUE8C5-76">
          <mxGeometry y="41" width="310" height="42" as="geometry" />
        </mxCell>
        <mxCell id="LLytZ81pDuAPuorUE8C5-83" value="1" style="shape=partialRectangle;html=1;whiteSpace=wrap;connectable=0;strokeColor=inherit;overflow=hidden;fillColor=none;top=0;left=0;bottom=0;right=0;pointerEvents=1;" vertex="1" parent="LLytZ81pDuAPuorUE8C5-82">
          <mxGeometry width="78" height="42" as="geometry">
            <mxRectangle width="78" height="42" as="alternateBounds" />
          </mxGeometry>
        </mxCell>
        <mxCell id="LLytZ81pDuAPuorUE8C5-84" value="1001" style="shape=partialRectangle;html=1;whiteSpace=wrap;connectable=0;strokeColor=inherit;overflow=hidden;fillColor=none;top=0;left=0;bottom=0;right=0;pointerEvents=1;" vertex="1" parent="LLytZ81pDuAPuorUE8C5-82">
          <mxGeometry x="78" width="77" height="42" as="geometry">
            <mxRectangle width="77" height="42" as="alternateBounds" />
          </mxGeometry>
        </mxCell>
        <mxCell id="LLytZ81pDuAPuorUE8C5-85" value="101" style="shape=partialRectangle;html=1;whiteSpace=wrap;connectable=0;strokeColor=inherit;overflow=hidden;fillColor=none;top=0;left=0;bottom=0;right=0;pointerEvents=1;" vertex="1" parent="LLytZ81pDuAPuorUE8C5-82">
          <mxGeometry x="155" width="78" height="42" as="geometry">
            <mxRectangle width="78" height="42" as="alternateBounds" />
          </mxGeometry>
        </mxCell>
        <mxCell id="LLytZ81pDuAPuorUE8C5-86" value="201" style="shape=partialRectangle;html=1;whiteSpace=wrap;connectable=0;strokeColor=inherit;overflow=hidden;fillColor=none;top=0;left=0;bottom=0;right=0;pointerEvents=1;" vertex="1" parent="LLytZ81pDuAPuorUE8C5-82">
          <mxGeometry x="233" width="77" height="42" as="geometry">
            <mxRectangle width="77" height="42" as="alternateBounds" />
          </mxGeometry>
        </mxCell>
        <mxCell id="LLytZ81pDuAPuorUE8C5-87" value="" style="shape=tableRow;horizontal=0;startSize=0;swimlaneHead=0;swimlaneBody=0;strokeColor=inherit;top=0;left=0;bottom=0;right=0;collapsible=0;dropTarget=0;fillColor=none;points=[[0,0.5],[1,0.5]];portConstraint=eastwest;" vertex="1" parent="LLytZ81pDuAPuorUE8C5-76">
          <mxGeometry y="83" width="310" height="41" as="geometry" />
        </mxCell>
        <mxCell id="LLytZ81pDuAPuorUE8C5-88" value="2" style="shape=partialRectangle;html=1;whiteSpace=wrap;connectable=0;strokeColor=inherit;overflow=hidden;fillColor=none;top=0;left=0;bottom=0;right=0;pointerEvents=1;" vertex="1" parent="LLytZ81pDuAPuorUE8C5-87">
          <mxGeometry width="78" height="41" as="geometry">
            <mxRectangle width="78" height="41" as="alternateBounds" />
          </mxGeometry>
        </mxCell>
        <mxCell id="LLytZ81pDuAPuorUE8C5-89" value="1002" style="shape=partialRectangle;html=1;whiteSpace=wrap;connectable=0;strokeColor=inherit;overflow=hidden;fillColor=none;top=0;left=0;bottom=0;right=0;pointerEvents=1;" vertex="1" parent="LLytZ81pDuAPuorUE8C5-87">
          <mxGeometry x="78" width="77" height="41" as="geometry">
            <mxRectangle width="77" height="41" as="alternateBounds" />
          </mxGeometry>
        </mxCell>
        <mxCell id="LLytZ81pDuAPuorUE8C5-90" value="102" style="shape=partialRectangle;html=1;whiteSpace=wrap;connectable=0;strokeColor=inherit;overflow=hidden;fillColor=none;top=0;left=0;bottom=0;right=0;pointerEvents=1;" vertex="1" parent="LLytZ81pDuAPuorUE8C5-87">
          <mxGeometry x="155" width="78" height="41" as="geometry">
            <mxRectangle width="78" height="41" as="alternateBounds" />
          </mxGeometry>
        </mxCell>
        <mxCell id="LLytZ81pDuAPuorUE8C5-91" value="202" style="shape=partialRectangle;html=1;whiteSpace=wrap;connectable=0;strokeColor=inherit;overflow=hidden;fillColor=none;top=0;left=0;bottom=0;right=0;pointerEvents=1;" vertex="1" parent="LLytZ81pDuAPuorUE8C5-87">
          <mxGeometry x="233" width="77" height="41" as="geometry">
            <mxRectangle width="77" height="41" as="alternateBounds" />
          </mxGeometry>
        </mxCell>
        <mxCell id="LLytZ81pDuAPuorUE8C5-92" value="" style="shape=tableRow;horizontal=0;startSize=0;swimlaneHead=0;swimlaneBody=0;strokeColor=inherit;top=0;left=0;bottom=0;right=0;collapsible=0;dropTarget=0;fillColor=none;points=[[0,0.5],[1,0.5]];portConstraint=eastwest;" vertex="1" parent="LLytZ81pDuAPuorUE8C5-76">
          <mxGeometry y="124" width="310" height="41" as="geometry" />
        </mxCell>
        <mxCell id="LLytZ81pDuAPuorUE8C5-93" value="3" style="shape=partialRectangle;html=1;whiteSpace=wrap;connectable=0;strokeColor=inherit;overflow=hidden;fillColor=none;top=0;left=0;bottom=0;right=0;pointerEvents=1;" vertex="1" parent="LLytZ81pDuAPuorUE8C5-92">
          <mxGeometry width="78" height="41" as="geometry">
            <mxRectangle width="78" height="41" as="alternateBounds" />
          </mxGeometry>
        </mxCell>
        <mxCell id="LLytZ81pDuAPuorUE8C5-94" value="1002" style="shape=partialRectangle;html=1;whiteSpace=wrap;connectable=0;strokeColor=inherit;overflow=hidden;fillColor=none;top=0;left=0;bottom=0;right=0;pointerEvents=1;" vertex="1" parent="LLytZ81pDuAPuorUE8C5-92">
          <mxGeometry x="78" width="77" height="41" as="geometry">
            <mxRectangle width="77" height="41" as="alternateBounds" />
          </mxGeometry>
        </mxCell>
        <mxCell id="LLytZ81pDuAPuorUE8C5-95" value="101" style="shape=partialRectangle;html=1;whiteSpace=wrap;connectable=0;strokeColor=inherit;overflow=hidden;fillColor=none;top=0;left=0;bottom=0;right=0;pointerEvents=1;" vertex="1" parent="LLytZ81pDuAPuorUE8C5-92">
          <mxGeometry x="155" width="78" height="41" as="geometry">
            <mxRectangle width="78" height="41" as="alternateBounds" />
          </mxGeometry>
        </mxCell>
        <mxCell id="LLytZ81pDuAPuorUE8C5-96" value="202" style="shape=partialRectangle;html=1;whiteSpace=wrap;connectable=0;strokeColor=inherit;overflow=hidden;fillColor=none;top=0;left=0;bottom=0;right=0;pointerEvents=1;" vertex="1" parent="LLytZ81pDuAPuorUE8C5-92">
          <mxGeometry x="233" width="77" height="41" as="geometry">
            <mxRectangle width="77" height="41" as="alternateBounds" />
          </mxGeometry>
        </mxCell>
        <mxCell id="LLytZ81pDuAPuorUE8C5-142" style="shape=tableRow;horizontal=0;startSize=0;swimlaneHead=0;swimlaneBody=0;strokeColor=inherit;top=0;left=0;bottom=0;right=0;collapsible=0;dropTarget=0;fillColor=none;points=[[0,0.5],[1,0.5]];portConstraint=eastwest;" vertex="1" parent="LLytZ81pDuAPuorUE8C5-76">
          <mxGeometry y="165" width="310" height="41" as="geometry" />
        </mxCell>
        <mxCell id="LLytZ81pDuAPuorUE8C5-143" value="4" style="shape=partialRectangle;html=1;whiteSpace=wrap;connectable=0;strokeColor=inherit;overflow=hidden;fillColor=none;top=0;left=0;bottom=0;right=0;pointerEvents=1;" vertex="1" parent="LLytZ81pDuAPuorUE8C5-142">
          <mxGeometry width="78" height="41" as="geometry">
            <mxRectangle width="78" height="41" as="alternateBounds" />
          </mxGeometry>
        </mxCell>
        <mxCell id="LLytZ81pDuAPuorUE8C5-144" value="1001" style="shape=partialRectangle;html=1;whiteSpace=wrap;connectable=0;strokeColor=inherit;overflow=hidden;fillColor=none;top=0;left=0;bottom=0;right=0;pointerEvents=1;" vertex="1" parent="LLytZ81pDuAPuorUE8C5-142">
          <mxGeometry x="78" width="77" height="41" as="geometry">
            <mxRectangle width="77" height="41" as="alternateBounds" />
          </mxGeometry>
        </mxCell>
        <mxCell id="LLytZ81pDuAPuorUE8C5-145" value="103" style="shape=partialRectangle;html=1;whiteSpace=wrap;connectable=0;strokeColor=inherit;overflow=hidden;fillColor=none;top=0;left=0;bottom=0;right=0;pointerEvents=1;" vertex="1" parent="LLytZ81pDuAPuorUE8C5-142">
          <mxGeometry x="155" width="78" height="41" as="geometry">
            <mxRectangle width="78" height="41" as="alternateBounds" />
          </mxGeometry>
        </mxCell>
        <mxCell id="LLytZ81pDuAPuorUE8C5-146" value="201" style="shape=partialRectangle;html=1;whiteSpace=wrap;connectable=0;strokeColor=inherit;overflow=hidden;fillColor=none;top=0;left=0;bottom=0;right=0;pointerEvents=1;" vertex="1" parent="LLytZ81pDuAPuorUE8C5-142">
          <mxGeometry x="233" width="77" height="41" as="geometry">
            <mxRectangle width="77" height="41" as="alternateBounds" />
          </mxGeometry>
        </mxCell>
        <mxCell id="LLytZ81pDuAPuorUE8C5-115" value="PROFESORADO" style="swimlane;childLayout=stackLayout;horizontal=1;startSize=50;horizontalStack=0;rounded=1;fontSize=14;fontStyle=0;strokeWidth=2;resizeParent=0;resizeLast=1;shadow=0;dashed=0;align=center;arcSize=4;whiteSpace=wrap;html=1;" vertex="1" parent="1">
          <mxGeometry x="320" y="575" width="160" height="120" as="geometry" />
        </mxCell>
        <mxCell id="LLytZ81pDuAPuorUE8C5-116" value="profesor_id&lt;div&gt;NombreProfesor&lt;/div&gt;&lt;div&gt;emailProfesor&lt;/div&gt;" style="align=left;strokeColor=none;fillColor=none;spacingLeft=4;fontSize=12;verticalAlign=top;resizable=0;rotatable=0;part=1;html=1;" vertex="1" parent="LLytZ81pDuAPuorUE8C5-115">
          <mxGeometry y="50" width="160" height="70" as="geometry" />
        </mxCell>
        <mxCell id="LLytZ81pDuAPuorUE8C5-117" value="1:N" style="text;html=1;align=center;verticalAlign=middle;resizable=0;points=[];autosize=1;strokeColor=none;fillColor=none;" vertex="1" parent="1">
          <mxGeometry x="-40" y="530" width="40" height="30" as="geometry" />
        </mxCell>
        <mxCell id="LLytZ81pDuAPuorUE8C5-118" value="1:N" style="text;html=1;align=center;verticalAlign=middle;resizable=0;points=[];autosize=1;strokeColor=none;fillColor=none;" vertex="1" parent="1">
          <mxGeometry x="220" y="590" width="40" height="30" as="geometry" />
        </mxCell>
        <mxCell id="LLytZ81pDuAPuorUE8C5-119" value="" style="endArrow=none;html=1;rounded=0;exitX=1;exitY=0.25;exitDx=0;exitDy=0;entryX=0;entryY=0.25;entryDx=0;entryDy=0;" edge="1" parent="1" source="LLytZ81pDuAPuorUE8C5-8" target="LLytZ81pDuAPuorUE8C5-6">
          <mxGeometry relative="1" as="geometry">
            <mxPoint x="192" y="561" as="sourcePoint" />
            <mxPoint x="284" y="560" as="targetPoint" />
          </mxGeometry>
        </mxCell>
        <mxCell id="LLytZ81pDuAPuorUE8C5-120" value="" style="endArrow=none;html=1;rounded=0;exitX=1.025;exitY=0.857;exitDx=0;exitDy=0;entryX=-0.012;entryY=0.143;entryDx=0;entryDy=0;entryPerimeter=0;exitPerimeter=0;" edge="1" parent="1" source="LLytZ81pDuAPuorUE8C5-6" target="LLytZ81pDuAPuorUE8C5-116">
          <mxGeometry relative="1" as="geometry">
            <mxPoint x="202" y="571" as="sourcePoint" />
            <mxPoint x="100" y="660" as="targetPoint" />
          </mxGeometry>
        </mxCell>
        <mxCell id="LLytZ81pDuAPuorUE8C5-122" value="" style="shape=table;startSize=0;container=1;collapsible=0;childLayout=tableLayout;" vertex="1" parent="1">
          <mxGeometry x="570" y="690" width="180" height="117" as="geometry" />
        </mxCell>
        <mxCell id="LLytZ81pDuAPuorUE8C5-123" value="" style="shape=tableRow;horizontal=0;startSize=0;swimlaneHead=0;swimlaneBody=0;strokeColor=inherit;top=0;left=0;bottom=0;right=0;collapsible=0;dropTarget=0;fillColor=none;points=[[0,0.5],[1,0.5]];portConstraint=eastwest;" vertex="1" parent="LLytZ81pDuAPuorUE8C5-122">
          <mxGeometry width="180" height="38" as="geometry" />
        </mxCell>
        <mxCell id="LLytZ81pDuAPuorUE8C5-124" value="CursoID" style="shape=partialRectangle;html=1;whiteSpace=wrap;connectable=0;strokeColor=inherit;overflow=hidden;fillColor=none;top=0;left=0;bottom=0;right=0;pointerEvents=1;" vertex="1" parent="LLytZ81pDuAPuorUE8C5-123">
          <mxGeometry width="91" height="38" as="geometry">
            <mxRectangle width="91" height="38" as="alternateBounds" />
          </mxGeometry>
        </mxCell>
        <mxCell id="LLytZ81pDuAPuorUE8C5-125" value="NombreCurso" style="shape=partialRectangle;html=1;whiteSpace=wrap;connectable=0;strokeColor=inherit;overflow=hidden;fillColor=none;top=0;left=0;bottom=0;right=0;pointerEvents=1;" vertex="1" parent="LLytZ81pDuAPuorUE8C5-123">
          <mxGeometry x="91" width="89" height="38" as="geometry">
            <mxRectangle width="89" height="38" as="alternateBounds" />
          </mxGeometry>
        </mxCell>
        <mxCell id="LLytZ81pDuAPuorUE8C5-126" value="" style="shape=tableRow;horizontal=0;startSize=0;swimlaneHead=0;swimlaneBody=0;strokeColor=inherit;top=0;left=0;bottom=0;right=0;collapsible=0;dropTarget=0;fillColor=none;points=[[0,0.5],[1,0.5]];portConstraint=eastwest;" vertex="1" parent="LLytZ81pDuAPuorUE8C5-122">
          <mxGeometry y="38" width="180" height="40" as="geometry" />
        </mxCell>
        <mxCell id="LLytZ81pDuAPuorUE8C5-127" value="1001" style="shape=partialRectangle;html=1;whiteSpace=wrap;connectable=0;strokeColor=inherit;overflow=hidden;fillColor=none;top=0;left=0;bottom=0;right=0;pointerEvents=1;" vertex="1" parent="LLytZ81pDuAPuorUE8C5-126">
          <mxGeometry width="91" height="40" as="geometry">
            <mxRectangle width="91" height="40" as="alternateBounds" />
          </mxGeometry>
        </mxCell>
        <mxCell id="LLytZ81pDuAPuorUE8C5-128" value="Mates" style="shape=partialRectangle;html=1;whiteSpace=wrap;connectable=0;strokeColor=inherit;overflow=hidden;fillColor=none;top=0;left=0;bottom=0;right=0;pointerEvents=1;" vertex="1" parent="LLytZ81pDuAPuorUE8C5-126">
          <mxGeometry x="91" width="89" height="40" as="geometry">
            <mxRectangle width="89" height="40" as="alternateBounds" />
          </mxGeometry>
        </mxCell>
        <mxCell id="LLytZ81pDuAPuorUE8C5-129" value="" style="shape=tableRow;horizontal=0;startSize=0;swimlaneHead=0;swimlaneBody=0;strokeColor=inherit;top=0;left=0;bottom=0;right=0;collapsible=0;dropTarget=0;fillColor=none;points=[[0,0.5],[1,0.5]];portConstraint=eastwest;" vertex="1" parent="LLytZ81pDuAPuorUE8C5-122">
          <mxGeometry y="78" width="180" height="39" as="geometry" />
        </mxCell>
        <mxCell id="LLytZ81pDuAPuorUE8C5-130" value="1002" style="shape=partialRectangle;html=1;whiteSpace=wrap;connectable=0;strokeColor=inherit;overflow=hidden;fillColor=none;top=0;left=0;bottom=0;right=0;pointerEvents=1;" vertex="1" parent="LLytZ81pDuAPuorUE8C5-129">
          <mxGeometry width="91" height="39" as="geometry">
            <mxRectangle width="91" height="39" as="alternateBounds" />
          </mxGeometry>
        </mxCell>
        <mxCell id="LLytZ81pDuAPuorUE8C5-131" value="Fisica" style="shape=partialRectangle;html=1;whiteSpace=wrap;connectable=0;strokeColor=inherit;overflow=hidden;fillColor=none;top=0;left=0;bottom=0;right=0;pointerEvents=1;" vertex="1" parent="LLytZ81pDuAPuorUE8C5-129">
          <mxGeometry x="91" width="89" height="39" as="geometry">
            <mxRectangle width="89" height="39" as="alternateBounds" />
          </mxGeometry>
        </mxCell>
        <mxCell id="LLytZ81pDuAPuorUE8C5-159" value="" style="endArrow=none;html=1;rounded=0;exitX=1;exitY=0.5;exitDx=0;exitDy=0;entryX=0;entryY=0.5;entryDx=0;entryDy=0;" edge="1" parent="1" source="LLytZ81pDuAPuorUE8C5-82" target="LLytZ81pDuAPuorUE8C5-38">
          <mxGeometry relative="1" as="geometry">
            <mxPoint x="330" y="830" as="sourcePoint" />
            <mxPoint x="490" y="830" as="targetPoint" />
          </mxGeometry>
        </mxCell>
        <mxCell id="LLytZ81pDuAPuorUE8C5-160" value="" style="endArrow=none;html=1;rounded=0;exitX=1;exitY=0.5;exitDx=0;exitDy=0;entryX=0;entryY=0.5;entryDx=0;entryDy=0;" edge="1" parent="1" source="LLytZ81pDuAPuorUE8C5-142" target="LLytZ81pDuAPuorUE8C5-38">
          <mxGeometry relative="1" as="geometry">
            <mxPoint x="349" y="980" as="sourcePoint" />
            <mxPoint x="479" y="1070" as="targetPoint" />
          </mxGeometry>
        </mxCell>
        <mxCell id="LLytZ81pDuAPuorUE8C5-161" value="" style="endArrow=none;html=1;rounded=0;exitX=1;exitY=0.5;exitDx=0;exitDy=0;entryX=0;entryY=0.5;entryDx=0;entryDy=0;" edge="1" parent="1" source="LLytZ81pDuAPuorUE8C5-92" target="LLytZ81pDuAPuorUE8C5-42">
          <mxGeometry relative="1" as="geometry">
            <mxPoint x="370" y="973" as="sourcePoint" />
            <mxPoint x="500" y="940" as="targetPoint" />
          </mxGeometry>
        </mxCell>
        <mxCell id="LLytZ81pDuAPuorUE8C5-162" value="" style="endArrow=none;html=1;rounded=0;entryX=0;entryY=0.5;entryDx=0;entryDy=0;exitX=1;exitY=0.5;exitDx=0;exitDy=0;" edge="1" parent="1" source="LLytZ81pDuAPuorUE8C5-87" target="LLytZ81pDuAPuorUE8C5-42">
          <mxGeometry relative="1" as="geometry">
            <mxPoint x="370" y="880" as="sourcePoint" />
            <mxPoint x="510" y="950" as="targetPoint" />
          </mxGeometry>
        </mxCell>
        <mxCell id="LLytZ81pDuAPuorUE8C5-163" value="" style="endArrow=none;html=1;rounded=0;exitX=1;exitY=0.5;exitDx=0;exitDy=0;entryX=0;entryY=0.5;entryDx=0;entryDy=0;" edge="1" parent="1" source="LLytZ81pDuAPuorUE8C5-25" target="LLytZ81pDuAPuorUE8C5-82">
          <mxGeometry relative="1" as="geometry">
            <mxPoint x="370" y="850" as="sourcePoint" />
            <mxPoint x="490" y="940" as="targetPoint" />
          </mxGeometry>
        </mxCell>
        <mxCell id="LLytZ81pDuAPuorUE8C5-164" value="" style="endArrow=none;html=1;rounded=0;exitX=1;exitY=0.5;exitDx=0;exitDy=0;entryX=0;entryY=0.5;entryDx=0;entryDy=0;" edge="1" parent="1" source="LLytZ81pDuAPuorUE8C5-29" target="LLytZ81pDuAPuorUE8C5-87">
          <mxGeometry relative="1" as="geometry">
            <mxPoint x="-40" y="851" as="sourcePoint" />
            <mxPoint x="60" y="850" as="targetPoint" />
          </mxGeometry>
        </mxCell>
        <mxCell id="LLytZ81pDuAPuorUE8C5-165" value="" style="endArrow=none;html=1;rounded=0;exitX=1;exitY=0.5;exitDx=0;exitDy=0;entryX=0;entryY=0.5;entryDx=0;entryDy=0;" edge="1" parent="1" source="LLytZ81pDuAPuorUE8C5-25" target="LLytZ81pDuAPuorUE8C5-92">
          <mxGeometry relative="1" as="geometry">
            <mxPoint x="-30" y="861" as="sourcePoint" />
            <mxPoint x="70" y="860" as="targetPoint" />
          </mxGeometry>
        </mxCell>
        <mxCell id="LLytZ81pDuAPuorUE8C5-166" value="" style="endArrow=none;html=1;rounded=0;exitX=1;exitY=0.5;exitDx=0;exitDy=0;entryX=0;entryY=0.5;entryDx=0;entryDy=0;" edge="1" parent="1" source="LLytZ81pDuAPuorUE8C5-100" target="LLytZ81pDuAPuorUE8C5-142">
          <mxGeometry relative="1" as="geometry">
            <mxPoint x="-20" y="871" as="sourcePoint" />
            <mxPoint x="80" y="870" as="targetPoint" />
          </mxGeometry>
        </mxCell>
        <mxCell id="LLytZ81pDuAPuorUE8C5-167" value="" style="endArrow=none;html=1;rounded=0;exitX=0;exitY=0.5;exitDx=0;exitDy=0;entryX=1;entryY=0.5;entryDx=0;entryDy=0;" edge="1" parent="1" source="LLytZ81pDuAPuorUE8C5-126" target="LLytZ81pDuAPuorUE8C5-82">
          <mxGeometry relative="1" as="geometry">
            <mxPoint x="370" y="850" as="sourcePoint" />
            <mxPoint x="490" y="940" as="targetPoint" />
          </mxGeometry>
        </mxCell>
        <mxCell id="LLytZ81pDuAPuorUE8C5-168" value="" style="endArrow=none;html=1;rounded=0;exitX=0;exitY=0.5;exitDx=0;exitDy=0;entryX=1;entryY=0.5;entryDx=0;entryDy=0;" edge="1" parent="1" source="LLytZ81pDuAPuorUE8C5-126" target="LLytZ81pDuAPuorUE8C5-142">
          <mxGeometry relative="1" as="geometry">
            <mxPoint x="510" y="778" as="sourcePoint" />
            <mxPoint x="370" y="850" as="targetPoint" />
          </mxGeometry>
        </mxCell>
        <mxCell id="LLytZ81pDuAPuorUE8C5-169" value="" style="endArrow=none;html=1;rounded=0;exitX=0;exitY=0.5;exitDx=0;exitDy=0;entryX=1;entryY=0.5;entryDx=0;entryDy=0;" edge="1" parent="1" source="LLytZ81pDuAPuorUE8C5-129" target="LLytZ81pDuAPuorUE8C5-87">
          <mxGeometry relative="1" as="geometry">
            <mxPoint x="520" y="788" as="sourcePoint" />
            <mxPoint x="380" y="860" as="targetPoint" />
          </mxGeometry>
        </mxCell>
        <mxCell id="LLytZ81pDuAPuorUE8C5-170" value="" style="endArrow=none;html=1;rounded=0;exitX=0;exitY=0.5;exitDx=0;exitDy=0;entryX=1;entryY=0.5;entryDx=0;entryDy=0;" edge="1" parent="1" source="LLytZ81pDuAPuorUE8C5-129" target="LLytZ81pDuAPuorUE8C5-92">
          <mxGeometry relative="1" as="geometry">
            <mxPoint x="580" y="798" as="sourcePoint" />
            <mxPoint x="370" y="891" as="targetPoint" />
          </mxGeometry>
        </mxCell>
      </root>
    </mxGraphModel>
  </diagram>
</mxfile>
